# xmcd
#
# Track frame offsets:
#	150
#	23751
#	43839
#	61627
#	85679
#	101725
#	116294
#	136527
#	155022
#	174810
#	193730
#	209410
#
# Disc length: 3021 seconds
#
# Revision: 0
# Processed by: cddbd v1.5.1PL0 Copyright (c) Steve Scherf et al.
# Submitted via: EasyCDDAExtractor 8.2.3.1
#
DISCID=910bcb0c
DTITLE=Neil Diamond - 12 Songs
DYEAR=2005
DGENRE=
TTITLE0=Oh Mary
TTITLE1=Hell yeah
TTITLE2=Captain of a shipwreck
TTITLE3=Evermore
TTITLE4=Save me a saturday night
TTITLE5=Delirious love
TTITLE6=I'm on to you
TTITLE7=What's it gonna be
TTITLE8=Man of God
TTITLE9=Create me
TTITLE10=Face me
TTITLE11=We
EXTD=
EXTT0=
EXTT1=
EXTT2=
EXTT3=
EXTT4=
EXTT5=
EXTT6=
EXTT7=
EXTT8=
EXTT9=
EXTT10=
EXTT11=
PLAYORDER=
